<svg width="31" height="31" viewBox="0 0 31 31" fill="none" xmlns="http://www.w3.org/2000/svg">
<path d="M30.5312 10.3281L28.4219 8.21875C27.8359 7.63281 26.8984 7.63281 26.3125 8.21875L12.25 22.3984L5.62891 15.7773C5.04297 15.1914 4.10547 15.1914 3.51953 15.7773L1.41016 17.8867C0.824219 18.4727 0.824219 19.4688 1.41016 20.0547L11.1367 29.8398C11.7227 30.4258 12.7188 30.4258 13.3047 29.8398L30.5312 12.4961C31.1172 11.9102 31.1172 10.9727 30.5312 10.3281ZM10.7266 16.832C11.1367 17.2422 11.7812 17.2422 12.1914 16.832L24.6133 4.52734C25.0234 4.11719 25.0234 3.47266 24.6719 3.0625L22.2109 0.601562C21.8008 0.191406 21.0977 0.191406 20.6875 0.601562L11.4883 9.74219L7.50391 5.69922C7.09375 5.28906 6.44922 5.28906 6.03906 5.69922L3.57812 8.16016C3.16797 8.51172 3.16797 9.21484 3.51953 9.625L10.7266 16.832Z" fill="#7CD90F"/>
</svg>
