<svg width="31" height="31" viewBox="0 0 31 31" fill="none" xmlns="http://www.w3.org/2000/svg">
<path d="M29.8867 2.21484L23.793 0.808594C23.1484 0.632812 22.4453 0.984375 22.1523 1.62891L19.3398 8.19141C19.1055 8.77734 19.2812 9.42188 19.75 9.83203L23.3242 12.7617C21.2148 17.2148 17.5234 20.9648 12.9531 23.1328L10.0234 19.5586C9.61328 19.0898 8.96875 18.9141 8.38281 19.1484L1.82031 21.9609C1.17578 22.2539 0.882812 22.957 1 23.6016L2.40625 29.6953C2.58203 30.3398 3.10938 30.75 3.8125 30.75C18.8125 30.75 31 18.6211 31 3.5625C31 2.91797 30.5312 2.39062 29.8867 2.21484Z" fill="#7CD90F"/>
</svg>
