<?xml version="1.0" encoding="UTF-8"?><!DOCTYPE svg PUBLIC "-//W3C//DTD SVG 1.1//EN" "http://www.w3.org/Graphics/SVG/1.1/DTD/svg11.dtd"><svg xmlns="http://www.w3.org/2000/svg" xmlns:xlink="http://www.w3.org/1999/xlink"><symbol id="icon-fb" viewBox="0 0 60 60">
    <path d="M57.378.001H3.352A3.352 3.352 0 0 0 0 3.353v54.026a3.353 3.353 0 0 0 3.352 3.354h29.086V37.214h-7.914v-9.167h7.914v-6.76c0-7.843 4.789-12.116 11.787-12.116 3.355 0 6.232.251 7.071.36v8.198l-4.854.002c-3.805 0-4.539 1.809-4.539 4.462v5.851h9.078l-1.187 9.166h-7.892v23.52h15.475a3.355 3.355 0 0 0 3.355-3.351V3.351a3.352 3.352 0 0 0-3.354-3.35z"/>
</symbol><symbol id="icon-right-arrow" viewBox="0 0 400 500">
    <path d="M382.678 226.804L163.73 7.86C158.666 2.792 151.906 0 144.698 0s-13.968 2.792-19.032 7.86l-16.124 16.12c-10.492 10.504-10.492 27.576 0 38.064L293.398 245.9l-184.06 184.06c-5.064 5.068-7.86 11.824-7.86 19.028 0 7.212 2.796 13.968 7.86 19.04l16.124 16.116c5.068 5.068 11.824 7.86 19.032 7.86s13.968-2.792 19.032-7.86L382.678 265c5.076-5.084 7.864-11.872 7.848-19.088.016-7.244-2.772-14.028-7.848-19.108z"/>
</symbol><symbol id="icon-twitter" viewBox="0 0 510 510">
    <path d="M459 0H51C22.95 0 0 22.95 0 51v408c0 28.05 22.95 51 51 51h408c28.05 0 51-22.95 51-51V51c0-28.05-22.95-51-51-51zm-58.65 186.15c-2.55 117.3-76.5 198.9-188.7 204-45.9 2.55-79.05-12.75-109.65-30.6 33.15 5.101 76.5-7.649 99.45-28.05-33.15-2.55-53.55-20.4-63.75-48.45 10.2 2.55 20.4 0 28.05 0-30.6-10.2-51-28.05-53.55-68.85 7.65 5.1 17.85 7.65 28.05 7.65-22.95-12.75-38.25-61.2-20.4-91.8 33.15 35.7 73.95 66.3 140.25 71.4-17.85-71.4 79.051-109.65 117.301-61.2 17.85-2.55 30.6-10.2 43.35-15.3-5.1 17.85-15.3 28.05-28.05 38.25 12.75-2.55 25.5-5.1 35.7-10.2-2.551 12.75-15.301 22.95-28.051 33.15z"/>
</symbol></svg>